<svg width="101" height="32" viewBox="0 0 101 32" fill="none" xmlns="http://www.w3.org/2000/svg">
<g clip-path="url(#clip0_181_155)">
<path d="M0 0.0312062V31.5456H4.70156V19.3751H8.85958C16.9349 19.3751 21.786 16.2272 21.786 9.68757C21.786 3.14792 16.933 0 8.85764 0H0V0.0312062ZM4.70156 15.5602V3.81496H8.85958C14.2522 3.81496 17.0553 5.48059 17.0553 9.71878C17.0553 13.957 14.2231 15.5621 8.85958 15.5621H4.70156V15.5602ZM25.249 31.5456H29.9506V0.0312062H25.249V31.5456ZM39.1402 21.8268V8.14482H34.4386V22.5543C34.4386 29.0335 37.6629 32 42.4538 32C45.8276 32 48.4501 30.5158 49.9856 27.6701V31.5456H54.6871V8.11361H49.9856V21.0096C49.9856 25.7315 47.695 28.306 44.1096 28.306C40.9164 28.306 39.1382 26.2483 39.1382 21.8268M59.4489 31.5456H64.1504V20.5571C64.1504 13.4733 66.7419 11.2323 71.1115 11.8681V7.96343C67.466 7.69038 65.3268 9.26629 64.1504 12.5644V8.14482H59.4489V31.5456ZM71.8628 25.3394C71.8628 29.0335 74.8755 32 79.7867 32C83.4924 32 86.0237 30.7888 87.5903 28.8813C87.6194 29.8195 87.7106 30.6971 87.8912 31.5456H92.321C91.7794 29.3962 91.8395 26.732 91.8395 23.8864V18.0742C91.8395 10.2025 87.8931 7.65917 82.4384 7.65917C77.4068 7.65917 73.3381 10.7174 72.4956 15.41H77.0749C77.467 12.8374 79.4858 11.3532 82.318 11.3532C85.3618 11.3532 87.169 12.6541 87.169 17.1654V17.3779L82.8596 17.8616C75.2366 18.7101 71.8608 21.1617 71.8608 25.3394M76.5624 25.0664C76.5624 22.5835 78.853 21.5849 83.7331 21.07L87.138 20.6761V22.8254C87.138 26.0338 85.09 28.5771 81.1417 28.5771C78.0979 28.5771 76.5624 26.9114 76.5624 25.0644M96.2984 31.5456H101V0.0312062H96.2984V31.5456Z" fill="black"/>
</g>
<defs>
<clipPath id="clip0_181_155">
<rect width="101" height="32" fill="white"/>
</clipPath>
</defs>
</svg>
